<?xml version="1.0" encoding="utf-8"?>
<!-- Generator: Adobe Illustrator 22.0.1, SVG Export Plug-In . SVG Version: 6.00 Build 0)  -->
<svg version="1.1" id="_x3C_Layer_x3E_" xmlns="http://www.w3.org/2000/svg" xmlns:xlink="http://www.w3.org/1999/xlink" x="0px"
	 y="0px" viewBox="0 0 715.7 158.5" style="enable-background:new 0 0 715.7 158.5;" xml:space="preserve">
<style type="text/css">
	.st0{fill:#2B4491;}
</style>
<path class="st0" d="M148.1,53.7V38.6h-7.9c-12.8-18.7-34.4-31-58.8-31c-24.4,0-45.9,12.3-58.8,31h-7.6l0,0.1l2.7,8.1l15,44.9
	l6.2,19.5h22.8l-3.6,7.6H33.3l-20-60.7c-2,6.5-3,13.5-3,20.7c0,39.3,31.9,71.2,71.2,71.2c39.3,0,71.2-31.9,71.2-71.2
	C152.7,70,151,61.5,148.1,53.7z M95.6,57.1l4.2-18.5h0.4v18.5v16.3L98,84.8h-0.5L93,68.3L95.6,57.1z M51.1,73.4l-2.2,11.4h-0.5
	l-4.3-16.5l5.1-22l8.1-3.7L51.1,73.4z M114.4,118.8H80.3l-11-36.5l2.6-16.5l14,45.4l32.1,0.1L114.4,118.8z M138,86.4h-19.9v-7.6
	h22.9L138,86.4z M144.2,62.2h-26.1v-5.1v-2.5h29.2l-1,2.5L144.2,62.2z"/>
<g>
	<path d="M198.9,82.2h0.1l8.3-29h4.8l8.6,29h0.1l8.2-28.4h8.5l-14.1,42.6h-6l-8.3-27.3h-0.1l-7.9,27.3h-6L182,53.8h8.5L198.9,82.2z"
		/>
	<path d="M242.1,87.5l-3.4,8.8H230l16.3-42.8h6.3l15.8,42.8h-8.7l-3.2-8.8H242.1z M249.1,65.7H249l-4.6,15.2h9.9L249.1,65.7z"/>
	<path d="M281.2,96.3H273V61.7h-8.4v-7.1h25v7.1h-8.4V96.3z"/>
	<path d="M311.8,63.8c-1.5-2.1-3.5-3.4-6.3-3.4c-2.6,0-5.1,2-5.1,4.7c0,7,16.5,4.1,16.5,18.1c0,8.4-5.2,14.3-13.7,14.3
		c-5.8,0-10-3.3-12.8-8.1l5.3-5.1c1.1,3.2,4,6.1,7.5,6.1c3.3,0,5.4-2.8,5.4-6c0-4.3-4-5.5-7.2-6.8c-5.4-2.2-9.3-4.9-9.3-11.4
		c0-6.9,5.1-12.5,12.2-12.5c3.7,0,8.9,1.8,11.4,4.6L311.8,63.8z"/>
	<path d="M320.3,75.4c0-11.7,8.5-21.9,20.6-21.9c12.2,0,20.6,10.2,20.6,21.9c0,12-8.5,22-20.6,22C328.8,97.4,320.3,87.4,320.3,75.4z
		 M328.7,75.1c0,6.3,5.3,14.3,12.2,14.3c6.9,0,12.2-8,12.2-14.3c0-6.8-5.1-13.6-12.2-13.6C333.8,61.5,328.7,68.3,328.7,75.1z"/>
	<path d="M366,53.5h5.9l22,29.2h0.1V54.6h8.1v42.6h-5.9l-22-29.2h-0.1v28.3H366V53.5z"/>
	<path d="M429.2,75.4v6.4h-13.5v-6.4H429.2z"/>
	<path d="M451.9,61.7v9.2h11.8V78h-11.8v18.4h-8.1V54.6h20.7v7.1H451.9z"/>
	<path d="M468.5,75.4c0-11.7,8.5-21.9,20.6-21.9c12.2,0,20.6,10.2,20.6,21.9c0,12-8.5,22-20.6,22C477,97.4,468.5,87.4,468.5,75.4z
		 M476.9,75.1c0,6.3,5.3,14.3,12.2,14.3c6.9,0,12.2-8,12.2-14.3c0-6.8-5.1-13.6-12.2-13.6C482,61.5,476.9,68.3,476.9,75.1z"/>
	<path d="M543.1,96.3h-9.9l-10.1-16.8H523v16.8h-8.1V54.6h11c8.2,0,13.9,3.7,13.9,12.6c0,5.3-2.9,10.6-8.5,11.6L543.1,96.3z
		 M523,73.8h1.1c4.5,0,7.6-1.3,7.6-6.4c0-5.1-3.3-6.1-7.6-6.1H523V73.8z"/>
	<path d="M565.2,63.8c-1.5-2.1-3.5-3.4-6.3-3.4c-2.6,0-5.1,2-5.1,4.7c0,7,16.5,4.1,16.5,18.1c0,8.4-5.2,14.3-13.7,14.3
		c-5.8,0-10-3.3-12.8-8.1l5.3-5.1c1.1,3.2,4,6.1,7.5,6.1c3.3,0,5.4-2.8,5.4-6c0-4.3-4-5.5-7.2-6.8c-5.4-2.2-9.3-4.9-9.3-11.4
		c0-6.9,5.1-12.5,12.2-12.5c3.7,0,8.9,1.8,11.4,4.6L565.2,63.8z"/>
	<path d="M575.5,54.6h10.1c7.7,0,12.5,3,12.5,11.3c0,3-1.1,6.4-3.7,8.1c4.9,0.9,7.1,5.9,7.1,10.5c0,8.2-5.8,11.8-13.3,11.8h-12.8
		V54.6z M583.6,72h1c4,0,5.9-1.2,5.9-5.5c0-4.3-2.4-5.4-5.9-5.4h-1.1V72z M583.6,89.8h1.7c4.4,0,8.1-0.6,8.1-6
		c0-5.4-4.4-5.6-8.5-5.6h-1.3V89.8z"/>
	<path d="M615.3,61.7v9.2h12.9V78h-12.9v11.3h13.4v7.1h-21.6V54.6h21.6v7.1H615.3z"/>
	<path d="M663.5,96.3h-9.8l-10.1-16.8h-0.1v16.8h-8.1V54.6h11c8.2,0,13.9,3.7,13.9,12.6c0,5.3-2.9,10.6-8.5,11.6L663.5,96.3z
		 M643.4,73.8h1c4.5,0,7.6-1.3,7.6-6.4c0-5.1-3.3-6.1-7.6-6.1h-1.1V73.8z"/>
	<path d="M702.7,74.1v1.1c0,11.8-6,22.2-19,22.2c-12.2,0-19.9-10.3-19.9-21.8c0-11.9,7.9-22.1,20.4-22.1c7.1,0,13.3,3.6,16.5,10
		l-7.2,3.9c-1.7-3.8-5.2-6.6-9.5-6.6c-7.9,0-11.7,8-11.7,14.9s3.9,14.6,11.8,14.6c5.1,0,9.4-4.4,9.5-9.5h-8.9v-6.6H702.7z"/>
</g>
<g>
	<path d="M479.2,127.1h8.3l-2.1,10.1h-1.7l-0.1-2.4c-1.7,1.8-4.3,2.9-6.8,2.9c-3.2,0-4.6-1.2-5.3-2.1c-2.3-2.7-1.7-6-1.3-8
		c1-4.6,4.9-9.8,11-9.8c3.5,0,7,2,6.7,6.2h-2.5c-0.1-3.3-2.7-4-4.8-4c-3.4,0-6.7,2.7-7.8,7.6c-0.8,3.8-0.4,7.8,4.6,7.8
		c0.9,0,2.5-0.1,4.1-1.2c1.9-1.3,2.7-3,3.1-5h-5.9L479.2,127.1z"/>
	<path d="M501.6,132.9c-0.2,0.7-1.3,2.6-3.2,3.8c-0.7,0.4-1.7,0.9-3.9,0.9c-3.9,0-5.5-2.9-4.7-6.9c0.9-4.3,3.7-7.6,8.2-7.6
		c4,0,5.2,3.2,4.2,8h-10c-0.6,2.9,0.4,4.5,3,4.5c2.2,0,3.8-1.7,4.1-2.7H501.6z M500.1,129.2c0.3-2.1-0.2-4.1-3-4.1
		c-2.1,0-4.2,2-4.7,4.1H500.1z"/>
	<path d="M514.8,137.2h-2.3l1.8-8.5c0.5-2.4,0.1-3.6-2.2-3.6c-1.3,0-3.8,0.8-4.6,4.6l-1.6,7.5h-2.3l2.9-13.7h2.2l-0.4,1.9h0.1
		c0.7-0.7,2.3-2.3,4.6-2.3c2.1,0,4.6,0.9,3.8,4.8L514.8,137.2z"/>
	<path d="M530.8,132.9c-0.2,0.7-1.3,2.6-3.2,3.8c-0.7,0.4-1.7,0.9-3.9,0.9c-3.9,0-5.5-2.9-4.7-6.9c0.9-4.3,3.7-7.6,8.2-7.6
		c4,0,5.2,3.2,4.2,8h-10c-0.6,2.9,0.4,4.5,3,4.5c2.2,0,3.8-1.7,4.1-2.7H530.8z M529.3,129.2c0.3-2.1-0.2-4.1-3-4.1
		c-2.1,0-4.2,2-4.7,4.1H529.3z"/>
	<path d="M535.4,137.2h-2.3l2.9-13.7h2.2l-0.5,2.3h0.1c1.3-1.6,2.7-2.7,4.4-2.7c0.3,0,0.4,0,0.6,0.1l-0.5,2.4h-0.9
		c-2.2,0-3.9,1.7-4.3,3.7L535.4,137.2z"/>
	<path d="M543.2,127.6c0.8-3.3,3.3-4.6,6.6-4.6c1.1,0,5,0.3,4.3,3.8l-1.7,7.9c-0.1,0.6,0.1,0.8,0.6,0.8c0.2,0,0.5-0.1,0.8-0.1
		l-0.4,1.7c-0.4,0.1-0.8,0.3-1.3,0.3c-2,0-2.1-1-2-2.1c-1.1,1-2.8,2.2-5.4,2.2c-2.5,0-4-1.6-3.5-4c0.2-1.2,1.2-3.8,5.1-4.3l3.9-0.5
		c0.6-0.1,1.3-0.3,1.6-1.6c0.3-1.4-0.6-2.2-2.8-2.2c-2.6,0-3.3,1.6-3.7,2.7H543.2z M551.1,130.2c-0.4,0.3-1.1,0.5-4,0.9
		c-1.2,0.2-3,0.5-3.4,2.2c-0.3,1.5,0.3,2.4,2,2.4c2.2,0,4.5-1.4,4.9-3.2L551.1,130.2z"/>
	<path d="M558.2,137.2h-2.3l4-18.8h2.3L558.2,137.2z"/>
	<g>
		<path d="M584.6,124c0-3.3-2.6-3.9-4.4-3.9c-3.4,0-6.7,2.5-7.8,7.5c-0.9,4.4-0.1,7.8,4.6,7.8c1.7,0,4.7-0.8,6.5-5.2h2.5
			c-2.6,7.1-8.4,7.4-9.8,7.4c-4.3,0-7.9-2.8-6.3-10c1.2-5.8,5.4-9.8,10.9-9.8c4.9,0,6.7,3,6.4,6.2H584.6z"/>
		<path d="M595.8,123.1c4.4,0,5.6,3.7,4.8,7.2c-0.8,3.5-3.5,7.2-7.9,7.2c-4.4,0-5.6-3.7-4.8-7.2
			C588.7,126.8,591.4,123.1,595.8,123.1z M593.2,135.6c3.3,0,4.7-3.4,5.1-5.2c0.4-1.8,0.4-5.2-2.9-5.2c-3.3,0-4.7,3.4-5.1,5.2
			C589.9,132.2,589.9,135.6,593.2,135.6z"/>
		<path d="M613,137.2h-2.3l1.8-8.5c0.5-2.4,0.1-3.6-2.2-3.6c-1.3,0-3.8,0.8-4.6,4.6l-1.6,7.5h-2.3l2.9-13.7h2.2l-0.4,1.9h0.1
			c0.7-0.7,2.3-2.3,4.6-2.3c2.1,0,4.6,0.9,3.8,4.8L613,137.2z"/>
		<path d="M621.8,125.4l-1.9,8.9c-0.2,1.1,0.7,1.1,1.2,1.1h0.8l-0.4,1.8c-0.9,0.1-1.5,0.2-1.8,0.2c-2.3,0-2.5-1.3-2.2-2.9l1.9-9.1
			h-1.9l0.4-1.9h1.9l0.8-3.8h2.3l-0.8,3.8h2.2l-0.4,1.9H621.8z"/>
		<path d="M627.1,137.2h-2.3l2.9-13.7h2.2l-0.5,2.3h0.1c1.3-1.6,2.7-2.7,4.4-2.7c0.3,0,0.4,0,0.6,0.1l-0.5,2.4h-0.9
			c-2.2,0-3.9,1.7-4.3,3.7L627.1,137.2z"/>
		<path d="M634.9,127.6c0.8-3.3,3.3-4.6,6.6-4.6c1.1,0,5,0.3,4.3,3.8l-1.7,7.9c-0.1,0.6,0.1,0.8,0.6,0.8c0.2,0,0.5-0.1,0.8-0.1
			l-0.4,1.7c-0.4,0.1-0.8,0.3-1.3,0.3c-2,0-2.1-1-2-2.1c-1.1,1-2.8,2.2-5.4,2.2c-2.5,0-4-1.6-3.5-4c0.2-1.2,1.2-3.8,5.1-4.3l3.9-0.5
			c0.6-0.1,1.3-0.3,1.6-1.6c0.3-1.4-0.6-2.2-2.8-2.2c-2.6,0-3.3,1.6-3.7,2.7H634.9z M642.8,130.2c-0.4,0.3-1.1,0.5-4,0.9
			c-1.2,0.2-3,0.5-3.4,2.2c-0.3,1.5,0.3,2.4,2,2.4c2.2,0,4.5-1.4,4.9-3.2L642.8,130.2z"/>
		<path d="M658,128.1c0.1-1.8-0.7-2.9-2.6-2.9c-2.9,0-4.4,2.7-4.9,5.2c-0.5,2.4-0.5,5.3,2.6,5.3c1.5,0,3.1-1.2,4-3.3h2.2
			c-0.7,2.2-2.7,5.2-6.7,5.2c-3.9,0-5.5-2.9-4.7-6.9c0.9-4.3,3.7-7.6,8.2-7.6c3.6,0,4.4,2.6,4.1,5H658z"/>
		<path d="M666,125.4l-1.9,8.9c-0.2,1.1,0.7,1.1,1.2,1.1h0.8l-0.4,1.8c-0.9,0.1-1.5,0.2-1.8,0.2c-2.3,0-2.5-1.3-2.2-2.9l1.9-9.1
			h-1.9l0.4-1.9h1.9l0.8-3.8h2.3l-0.8,3.8h2.2l-0.4,1.9H666z"/>
		<path d="M676.5,123.1c4.4,0,5.6,3.7,4.8,7.2c-0.8,3.5-3.5,7.2-7.9,7.2c-4.4,0-5.6-3.7-4.8-7.2
			C669.4,126.8,672.1,123.1,676.5,123.1z M673.9,135.6c3.3,0,4.7-3.4,5.1-5.2c0.4-1.8,0.4-5.2-2.9-5.2c-3.3,0-4.7,3.4-5.1,5.2
			C670.6,132.2,670.6,135.6,673.9,135.6z"/>
		<path d="M684.4,137.2h-2.3l2.9-13.7h2.2l-0.5,2.3h0.1c1.3-1.6,2.7-2.7,4.4-2.7c0.3,0,0.4,0,0.6,0.1l-0.5,2.4h-0.9
			c-2.2,0-3.9,1.7-4.3,3.7L684.4,137.2z"/>
		<path d="M700.4,127.4c0.2-0.9,0.2-2.3-2.8-2.3c-0.7,0-2.8,0.2-3.1,1.9c-0.2,1.1,0.4,1.4,2.1,1.8l2.2,0.6c2.7,0.7,3.5,1.8,3.1,3.6
			c-0.6,2.8-3.3,4.5-6.4,4.5c-5.4,0-5.2-3.1-4.9-4.8h2.2c-0.2,1.1-0.2,2.8,3.1,2.8c1.7,0,3.3-0.7,3.6-2.2c0.2-1.1-0.4-1.5-2.3-2
			l-2.5-0.7c-1.8-0.5-2.9-1.4-2.5-3.3c0.6-3,3.4-4.4,6.1-4.4c4.9,0,4.5,3.6,4.3,4.3H700.4z"/>
	</g>
</g>
</svg>
