<svg width="143" height="143" viewBox="0 0 143 143" fill="none" xmlns="http://www.w3.org/2000/svg">
<path d="M137.8 46.1V31H129.9C117.1 12.3 95.5 0 71.1 0C46.7 0 25.2 12.3 12.3 31H4.7V31.1L7.4 39.2L22.4 84.1L28.6 103.6H51.4L47.8 111.2H23L3 50.5C1 57 0 64 0 71.2C0 110.5 31.9 142.4 71.2 142.4C110.5 142.4 142.4 110.5 142.4 71.2C142.4 62.4 140.7 53.9 137.8 46.1ZM85.3 49.5L89.5 31H89.9V49.5V65.8L87.7 77.2H87.2L82.7 60.7L85.3 49.5ZM40.8 65.8L38.6 77.2H38.1L33.8 60.7L38.9 38.7L47 35L40.8 65.8ZM104.1 111.2H70L59 74.7L61.6 58.2L75.6 103.6L107.7 103.7L104.1 111.2ZM127.7 78.8H107.8V71.2H130.7L127.7 78.8ZM133.9 54.6H107.8V49.5V47H137L136 49.5L133.9 54.6Z" fill="#2B4491"/>
</svg>
